<?xml version="1.0" standalone="no"?>
<!DOCTYPE svg PUBLIC "-//W3C//DTD SVG 20010904//EN"
 "http://www.w3.org/TR/2001/REC-SVG-20010904/DTD/svg10.dtd">
<svg version="1.0" xmlns="http://www.w3.org/2000/svg"
 width="1024.000000pt" height="684.000000pt" viewBox="0 0 1024.000000 684.000000"
 preserveAspectRatio="xMidYMid meet">

<g transform="translate(0.000000,684.000000) scale(0.100000,-0.100000)"
fill="#000000" stroke="none">
<path d="M6880 6825 c0 -11 11 -15 36 -15 27 0 41 -7 56 -25 14 -18 29 -25 55
-25 26 0 40 -7 55 -25 16 -21 28 -25 69 -25 37 0 49 -4 49 -15 0 -8 -7 -15
-15 -15 -11 0 -15 -11 -15 -40 0 -36 2 -40 26 -40 16 0 34 -10 46 -25 11 -14
25 -25 33 -25 19 0 39 -27 24 -32 -9 -3 -9 -9 0 -26 16 -29 27 -28 45 6 8 15
15 21 16 13 0 -7 11 -22 25 -33 14 -11 25 -24 25 -29 0 -5 -11 -9 -25 -9 -16
0 -25 -6 -25 -15 0 -11 11 -15 40 -15 29 0 40 4 40 15 0 8 7 15 16 15 13 0 15
-8 12 -40 -3 -38 -2 -40 24 -40 16 0 28 -5 28 -11 0 -6 11 -20 25 -31 14 -11
25 -24 25 -29 0 -5 -11 -9 -25 -9 -16 0 -25 -6 -25 -15 0 -11 11 -15 40 -15
29 0 40 4 40 15 0 8 7 15 15 15 11 0 15 -11 15 -40 0 -29 -4 -40 -15 -40 -23
0 -18 -15 16 -49 34 -35 49 -39 49 -15 0 14 3 14 15 4 9 -7 15 -29 15 -52 0
-55 28 -77 97 -78 43 0 55 -4 71 -25 11 -14 30 -25 44 -25 13 0 29 -9 35 -19
7 -11 25 -26 40 -33 24 -11 28 -20 31 -61 2 -26 7 -47 13 -47 5 0 9 -18 9 -40
0 -29 4 -40 15 -40 11 0 15 -12 15 -50 0 -43 4 -55 28 -75 19 -18 24 -27 15
-33 -8 -5 -9 -12 -2 -22 8 -13 11 -13 20 3 5 9 16 17 24 17 20 0 75 -59 75
-80 0 -32 57 -80 95 -80 27 0 39 -8 65 -40 17 -22 28 -40 23 -40 -19 -1 33
-30 53 -30 12 0 31 -11 42 -25 11 -14 30 -25 44 -25 13 0 29 -9 36 -20 7 -12
23 -25 36 -30 24 -9 63 -70 45 -70 -17 0 28 -65 55 -78 15 -8 30 -20 33 -28 3
-8 16 -14 28 -14 20 0 85 -51 85 -67 0 -13 37 -32 61 -33 38 0 99 -28 99 -44
0 -8 11 -16 25 -18 14 -2 24 -7 23 -11 -2 -5 22 -17 52 -27 30 -10 56 -23 58
-29 2 -6 14 -11 26 -11 24 0 56 -28 56 -48 0 -6 7 -9 15 -5 10 3 15 0 13 -8
-2 -9 8 -15 25 -17 24 -3 27 -7 27 -43 0 -34 3 -39 23 -39 13 0 28 -5 35 -12
7 -7 12 -9 12 -5 0 4 12 -4 27 -18 16 -14 40 -25 55 -25 15 0 30 -4 33 -10 3
-5 -1 -10 -9 -10 -9 0 -16 -4 -16 -9 0 -18 62 -71 82 -71 19 0 20 -4 13 -80
-7 -77 -6 -80 14 -80 14 0 21 -6 21 -20 0 -11 -4 -20 -10 -20 -5 0 -10 -9 -10
-21 0 -18 -4 -20 -31 -14 -19 4 -29 3 -26 -2 8 -12 -38 -34 -56 -27 -12 4 -24
-3 -74 -46 -7 -5 -28 -10 -48 -10 -19 0 -35 -4 -35 -8 0 -5 -18 -14 -40 -21
-22 -6 -40 -16 -40 -21 0 -6 -10 -10 -22 -10 -34 0 -148 -39 -148 -51 0 -7
-107 -44 -140 -48 -5 0 -10 -7 -10 -14 0 -7 -9 -18 -20 -25 -12 -7 -25 -24
-30 -37 -7 -19 -17 -25 -38 -25 -16 0 -51 -7 -80 -15 -42 -13 -50 -19 -47 -35
4 -21 -9 -27 -20 -10 -10 17 -38 12 -31 -6 4 -10 2 -14 -6 -11 -7 2 -12 10
-10 17 2 7 -5 9 -17 5 -11 -3 -22 -1 -25 4 -4 6 -46 22 -94 37 -48 14 -97 33
-110 41 -25 15 -142 57 -207 74 -21 5 -44 14 -50 19 -5 4 -29 13 -53 20 -41
10 -45 9 -84 -19 -23 -17 -46 -31 -51 -31 -5 0 -39 -14 -75 -31 -73 -33 -83
-32 -146 19 -20 16 -37 22 -52 18 -13 -4 -40 1 -61 9 -48 19 -118 28 -215 29
-69 1 -80 -2 -100 -23 -17 -18 -19 -22 -6 -18 12 4 15 2 11 -9 -3 -7 -8 -14
-12 -14 -9 0 -61 -46 -61 -55 0 -4 8 -4 18 0 9 4 33 9 52 12 19 2 48 8 64 14
45 14 52 -4 15 -40 -21 -21 -35 -29 -42 -22 -10 10 -57 -6 -57 -20 0 -9 -109
-5 -132 6 -12 4 -31 -1 -55 -15 -26 -15 -53 -21 -92 -21 -30 0 -62 -4 -72 -9
-11 -6 -23 -4 -35 5 -18 14 -18 14 2 15 11 0 30 9 42 20 12 11 28 20 37 20 8
0 15 5 15 10 0 6 11 10 24 10 14 0 27 4 31 9 3 5 31 15 63 21 64 14 124 41
104 48 -7 2 -33 -1 -57 -7 -24 -6 -67 -11 -95 -11 -37 0 -64 -7 -96 -26 -36
-21 -51 -25 -86 -19 -78 12 -203 47 -234 66 -40 24 -61 24 -101 -1 -34 -20
-43 -44 -20 -53 8 -4 7 -6 -3 -7 -16 -1 -60 -34 -60 -45 0 -11 -28 -35 -40
-35 -6 0 -23 -6 -38 -14 -15 -8 -46 -17 -67 -20 -31 -5 -35 -4 -17 3 12 6 22
15 22 22 0 6 7 8 16 5 10 -4 14 -1 11 6 -5 15 -60 13 -65 -2 -2 -5 -7 -8 -11
-6 -16 10 -165 -32 -218 -62 -12 -7 -28 -12 -35 -12 -16 0 -40 -48 -27 -56 5
-3 43 0 84 7 41 7 77 10 80 7 11 -10 -7 -38 -25 -38 -9 0 -32 -16 -51 -36
-100 -105 -123 -125 -150 -131 -21 -4 -30 -1 -35 11 -4 10 -2 22 5 29 15 15
14 27 -4 27 -31 0 -16 31 60 122 7 9 18 25 23 35 9 16 6 18 -35 14 -38 -3 -45
0 -50 18 -3 11 -9 19 -13 16 -4 -3 -13 2 -20 10 -12 15 -47 24 -115 30 -22 1
-45 3 -52 4 -7 1 -10 8 -7 16 7 18 -12 20 -19 3 -4 -9 -8 -9 -14 -3 -12 15
-33 19 -83 16 -46 -3 -101 -2 -157 1 -30 1 -60 -16 -153 -89 -15 -13 -33 -23
-39 -23 -6 0 -11 -7 -11 -15 0 -8 3 -15 6 -15 9 0 108 61 114 70 6 8 46 30 54
30 16 0 -21 -40 -41 -45 -20 -5 -29 -22 -24 -49 4 -19 -11 -45 -28 -51 -12 -4
-17 -12 -14 -24 5 -19 -33 -55 -48 -45 -9 5 -122 -36 -116 -43 3 -2 39 5 81
16 81 20 103 9 30 -16 -40 -14 -84 -53 -84 -74 0 -6 -7 -9 -15 -6 -8 4 -17 2
-20 -4 -4 -5 1 -12 9 -15 14 -5 14 -8 1 -27 -20 -28 -19 -34 5 -40 20 -5 29
-37 10 -37 -5 0 -10 5 -10 10 0 6 -5 10 -11 10 -6 0 -9 -7 -5 -15 3 -8 1 -15
-5 -15 -6 0 -9 -8 -8 -17 1 -10 -1 -26 -6 -36 -7 -16 -10 -16 -29 -3 -26 16
-70 11 -88 -12 -11 -13 -9 -14 25 -8 23 4 37 3 37 -4 0 -5 8 -10 18 -10 26 0
31 -8 23 -37 -10 -36 -31 -42 -31 -9 0 32 -15 34 -24 4 -5 -19 -8 -20 -15 -8
-5 8 -7 18 -5 22 3 4 1 8 -4 8 -5 0 -12 -14 -16 -32 -10 -52 -19 -57 -109 -52
-45 2 -92 6 -104 9 -12 3 -25 1 -28 -5 -3 -5 -11 -10 -18 -10 -8 0 -8 3 1 12
17 17 15 45 -4 52 -8 3 -12 10 -9 16 11 18 -22 11 -46 -10 l-24 -19 38 -1 c20
0 37 -2 37 -4 0 -3 -11 -16 -24 -30 -25 -28 -63 -34 -97 -16 -21 12 -27 68 -8
87 8 8 8 13 0 17 -35 22 31 91 137 145 41 21 42 22 27 45 -9 14 -13 34 -10 47
5 21 2 24 -22 25 -15 1 -22 -1 -15 -3 6 -3 12 -17 12 -31 0 -28 -34 -52 -72
-52 -12 0 -16 -5 -12 -17 4 -11 3 -14 -3 -7 -4 7 -19 14 -33 15 -25 4 -25 7
-47 174 -23 175 -56 332 -77 360 -6 8 -85 43 -176 76 -255 94 -288 106 -390
145 -52 20 -118 43 -147 52 -46 15 -52 21 -58 49 -7 37 -16 42 -190 108 -55
20 -129 49 -165 62 -36 14 -119 45 -185 69 -66 23 -156 57 -200 75 -194 77
-315 112 -315 90 0 -6 9 -11 19 -11 12 0 25 -12 33 -30 7 -16 20 -30 28 -30 8
0 33 -12 55 -26 36 -23 38 -25 13 -21 -16 2 -28 0 -28 -4 0 -5 5 -9 10 -9 6 0
10 -9 10 -19 0 -12 -11 -23 -31 -30 -28 -10 -30 -13 -24 -45 6 -28 2 -42 -23
-78 -16 -24 -33 -53 -37 -66 -4 -14 -12 -21 -20 -18 -15 5 -25 -14 -25 -49 0
-13 -5 -27 -10 -30 -15 -10 -99 -15 -104 -6 -3 4 -21 5 -40 3 -40 -5 -48 -19
-51 -92 -1 -33 -6 -46 -18 -48 -9 -2 -17 2 -17 9 0 10 -3 10 -11 2 -13 -13
-44 -5 -112 28 -50 24 -92 84 -81 114 4 10 0 15 -12 16 -46 1 78 29 136 30 36
0 76 4 90 9 l25 7 -28 8 c-15 4 -27 13 -27 20 0 6 -9 20 -20 30 -26 24 -42 85
-41 157 1 82 -15 97 -109 105 -70 7 -72 7 -35 14 22 5 60 8 85 8 27 1 57 9 75
21 17 11 24 20 17 20 -9 0 -11 7 -7 22 6 18 4 20 -11 13 -11 -4 -95 -10 -189
-12 -121 -3 -177 -9 -198 -19 -15 -8 -25 -19 -22 -24 4 -6 1 -10 -5 -10 -7 0
-9 7 -6 15 5 14 -3 15 -57 10 -73 -8 -157 -30 -207 -54 -33 -17 -74 -25 -180
-37 -25 -3 -49 -10 -55 -16 -7 -8 -6 -8 4 -3 9 5 12 4 7 -3 -4 -7 -15 -12 -24
-12 -21 0 -197 -53 -235 -71 -29 -13 -43 -45 -34 -82 7 -28 -20 -79 -56 -108
-26 -20 -34 -21 -84 -12 -47 9 -56 8 -60 -6 -3 -9 -13 -33 -22 -55 -16 -38
-16 -38 -61 -33 -25 3 -59 9 -75 12 -30 7 -31 5 -49 -52 l-19 -58 -13 31 c-7
17 -19 36 -28 43 -8 7 -12 19 -9 27 4 11 -8 14 -60 14 -106 0 -151 -30 -206
-137 -25 -51 -26 -53 -4 -53 9 0 13 -3 9 -7 -4 -4 -15 -8 -24 -8 -14 0 -19
-15 -25 -75 -4 -41 -6 -107 -5 -145 l3 -70 -85 7 c-47 3 -99 9 -117 13 -25 6
-38 2 -59 -14 -17 -13 -41 -21 -65 -21 l-39 0 0 -1819 0 -1818 5120 1 5120 1
0 3418 0 3417 -1680 0 c-1487 0 -1680 -2 -1680 -15z m-5528 -2691 c-1 -21 -4
-64 -6 -94 -5 -80 -5 -83 -21 -104 -12 -16 -17 -17 -30 -6 -23 19 -19 57 7 71
14 8 18 14 10 17 -6 2 -12 12 -12 22 0 14 -9 20 -32 22 -30 3 -33 6 -33 38 0
32 2 35 28 32 21 -3 27 1 27 17 0 12 8 21 23 24 37 7 42 2 39 -39z m1592 -10
c8 -21 -1 -34 -25 -34 -14 0 -19 7 -19 25 0 29 34 36 44 9z m-1740 -12 c-10
-10 -27 -17 -37 -14 -13 3 -16 0 -11 -12 3 -9 2 -16 -4 -16 -5 0 -13 7 -16 16
-8 22 21 43 58 44 29 0 29 0 10 -18z m1981 -52 c10 -16 -5 -50 -21 -50 -8 0
-14 10 -14 23 0 34 21 50 35 27z m-2035 -10 c0 -5 -4 -10 -10 -10 -5 0 -10 5
-10 10 0 6 5 10 10 10 6 0 10 -4 10 -10z m80 6 c0 -3 -5 -17 -10 -32 -8 -20
-8 -29 2 -35 7 -4 9 -11 5 -16 -12 -12 -27 18 -27 55 0 22 5 32 15 32 8 0 15
-2 15 -4z m-518 -40 c73 -15 139 -35 150 -45 6 -5 -26 -179 -60 -328 -5 -23
-7 -44 -4 -48 3 -3 -15 -5 -39 -5 -45 -1 -88 -18 -87 -35 0 -15 -60 -46 -68
-34 -4 6 -11 6 -20 -2 -8 -6 -14 -8 -14 -5 0 14 28 35 54 42 14 3 26 9 26 14
0 15 -37 38 -93 57 -31 11 -55 21 -53 24 2 2 7 68 11 147 5 123 4 143 -10 148
-17 7 -20 24 -4 24 6 0 27 14 46 30 39 34 65 37 165 16z m253 -24 c-9 -9 -35
8 -35 24 0 16 2 16 20 -1 11 -10 18 -20 15 -23z m2793 -89 c-5 -25 -28 -28
-28 -4 0 12 6 21 16 21 9 0 14 -7 12 -17z m-1393 -20 c-9 -36 -14 -41 -25 -23
-17 26 -11 50 11 50 18 0 20 -4 14 -27z m4655 -7 c0 -3 -4 -8 -10 -11 -5 -3
-10 -1 -10 4 0 6 5 11 10 11 6 0 10 -2 10 -4z m-6006 -80 c-7 -28 -19 -87 -27
-131 -12 -75 -15 -80 -40 -83 -33 -4 -33 2 -12 137 24 148 20 138 58 133 l35
-4 -14 -52z m114 47 c-10 -2 -26 -2 -35 0 -10 3 -2 5 17 5 19 0 27 -2 18 -5z
m126 -32 c-1 -17 -2 -48 -3 -68 -1 -29 -4 -34 -11 -23 -11 17 -14 113 -4 123
12 12 19 -1 18 -32z m6218 -3 c7 -18 -2 -39 -13 -32 -5 3 -38 -8 -72 -24 -54
-27 -110 -43 -234 -67 -51 -10 -32 18 22 34 25 7 45 18 45 25 1 17 41 43 80
50 19 4 43 10 53 12 15 5 16 2 7 -20 -6 -17 -6 -26 0 -26 6 0 10 5 10 10 0 6
7 10 15 10 8 0 15 4 15 9 0 5 12 14 28 19 37 14 39 14 44 0z m-1109 -108 c-5
-18 -3 -19 21 -10 41 15 55 12 53 -11 -1 -12 -13 -26 -32 -34 -47 -21 -65 -40
-65 -66 0 -16 -10 -30 -27 -41 -16 -9 -39 -25 -51 -37 -13 -11 -29 -22 -34
-23 -6 -2 -11 -15 -12 -28 -1 -18 -8 -26 -25 -28 -47 -7 -70 -31 -76 -80 -12
-83 -16 -90 -31 -53 -8 19 -14 43 -14 55 0 32 -10 38 -37 21 -13 -9 -23 -11
-23 -6 0 5 5 13 10 16 18 11 11 25 -17 37 l-28 11 25 7 c14 5 19 8 13 9 -7 1
-13 5 -13 11 0 5 7 7 15 4 8 -4 15 -1 15 6 0 7 20 30 45 52 25 22 45 45 46 51
0 14 112 107 128 107 6 0 11 5 11 10 0 6 8 10 19 10 10 0 34 7 52 15 19 8 35
14 36 15 0 0 -1 -9 -4 -20z m-4704 -11 c-8 -5 -42 -9 -75 -9 -74 0 -126 -9
-118 -21 3 -5 26 -9 52 -10 48 -1 48 -3 0 -13 -15 -4 -33 -16 -39 -27 -7 -14
-7 -19 0 -15 6 4 16 -2 22 -13 7 -10 18 -17 25 -14 7 2 23 -2 36 -11 17 -11
44 -14 101 -12 43 2 80 -1 83 -6 3 -4 9 -6 14 -3 4 3 10 -4 13 -14 4 -17 -1
-18 -59 -13 -34 2 -84 -1 -110 -7 -49 -13 -66 -9 -46 11 21 21 14 23 -62 20
l-74 -4 10 44 c5 24 8 57 6 75 l-4 32 61 5 c56 6 96 9 154 13 18 1 20 -1 10
-8z m5361 -8 c0 -15 41 -24 53 -12 6 6 15 11 19 11 4 0 -1 -9 -11 -19 -11 -11
-28 -19 -38 -19 -10 1 -44 -4 -76 -11 -32 -7 -61 -10 -64 -7 -4 3 0 6 8 7 8 0
6 4 -6 9 -20 9 -20 9 0 9 11 1 30 8 42 16 12 9 24 11 27 6 4 -5 0 -12 -6 -14
-7 -3 -3 -6 10 -6 16 -1 22 5 22 19 0 11 5 20 10 20 6 0 10 -4 10 -9z m-514
-23 c1 -13 -4 -18 -19 -18 -18 0 -19 2 -7 10 13 8 12 10 -3 10 -10 0 -15 5
-12 11 10 15 38 6 41 -13z m-1058 -88 c16 0 23 -30 7 -31 -8 -1 -19 -2 -24 -3
-5 0 -19 -12 -30 -25 -30 -34 -35 -21 -12 30 20 45 17 75 -4 45 -12 -15 -13
-15 -19 0 -3 8 -6 28 -6 42 1 27 1 26 39 -15 21 -24 43 -43 49 -43z m1092 71
c0 -6 -5 -13 -11 -17 -6 -3 -9 -15 -6 -25 4 -15 0 -19 -18 -19 -13 0 -28 -6
-32 -14 -7 -12 -11 -12 -27 -1 -10 8 -15 19 -11 25 5 8 11 8 22 -1 12 -11 13
-9 8 14 -6 23 -4 26 13 22 12 -2 26 3 33 11 13 16 29 19 29 5z m-5288 -90 c2
-4 22 -10 46 -14 35 -4 42 -2 42 11 0 14 2 15 9 2 6 -8 7 -18 5 -22 -7 -12
-82 -10 -105 2 -13 8 -19 7 -19 0 0 -6 -5 -8 -10 -5 -8 5 -7 11 1 21 13 16 26
18 31 5z m4188 -56 c0 -8 -9 -15 -20 -15 -20 0 -26 11 -13 23 12 13 33 7 33
-8z m1185 -15 c-3 -5 -14 -10 -23 -10 -15 0 -15 2 -2 10 20 13 33 13 25 0z
m-69 -47 c-10 -10 -19 5 -10 18 6 11 8 11 12 0 2 -7 1 -15 -2 -18z m-5179 11
c-3 -3 -12 -4 -19 -1 -8 3 -5 6 6 6 11 1 17 -2 13 -5z m50 0 c-3 -3 -12 -4
-19 -1 -8 3 -5 6 6 6 11 1 17 -2 13 -5z m-747 -14 c-8 -5 -19 -10 -25 -10 -5
0 -3 5 5 10 8 5 20 10 25 10 6 0 3 -5 -5 -10z m1070 0 c0 -5 -5 -10 -11 -10
-5 0 -7 5 -4 10 3 6 8 10 11 10 2 0 4 -4 4 -10z m-240 -9 c0 -15 -16 -22 -35
-15 -13 5 -14 8 -3 15 18 12 38 11 38 0z m4997 -15 c10 -10 -8 -25 -37 -31
-17 -4 -30 -10 -30 -15 0 -4 -24 -10 -52 -12 -29 -3 -62 -8 -73 -12 -26 -8 47
28 103 51 23 9 42 20 42 24 0 8 39 3 47 -5z m-1307 -10 c0 -8 -7 -17 -16 -20
-25 -10 -30 2 -8 19 24 18 24 18 24 1z m-3633 -2 c-3 -3 -12 -4 -19 -1 -8 3
-5 6 6 6 11 1 17 -2 13 -5z m4443 -8 c0 -2 -7 -9 -15 -16 -13 -11 -14 -10 -9
4 5 14 24 23 24 12z m-660 -106 c0 -13 -1 -13 -10 0 -5 8 -10 22 -10 30 0 13
1 13 10 0 5 -8 10 -22 10 -30z m-205 -29 c3 -5 1 -12 -5 -16 -5 -3 -10 1 -10
9 0 18 6 21 15 7z m2354 -100 c-1 -22 -28 39 -28 64 0 14 4 9 14 -14 8 -18 15
-41 14 -50z m-2317 44 c0 -5 -5 -11 -11 -13 -6 -2 -11 4 -11 13 0 9 5 15 11
13 6 -2 11 -8 11 -13z m1803 -95 c3 -5 1 -10 -4 -10 -6 0 -11 5 -11 10 0 6 2
10 4 10 3 0 8 -4 11 -10z m2110 -180 c-3 -5 -11 -10 -16 -10 -6 0 -7 5 -4 10
3 6 11 10 16 10 6 0 7 -4 4 -10z m-40 -20 c-3 -5 -12 -10 -18 -10 -7 0 -6 4 3
10 19 12 23 12 15 0z m-4439 -225 c-13 -36 -41 -7 -31 32 l6 26 15 -22 c9 -12
13 -28 10 -36z m-3736 -26 c77 -38 137 -96 175 -172 55 -109 56 -107 -82 -106
-135 1 -179 13 -209 57 -17 25 -20 41 -17 84 7 78 22 118 49 130 13 6 24 15
24 20 0 13 12 10 60 -13z m4977 -15 c-3 -3 -12 -4 -19 -1 -8 3 -5 6 6 6 11 1
17 -2 13 -5z m-1393 -13 c8 -12 -3 -41 -15 -41 -5 0 -9 11 -9 25 0 25 14 34
24 16z m-341 -71 c7 -12 2 -26 -16 -53 l-26 -38 -16 31 c-23 45 -13 82 22 78
14 -2 30 -10 36 -18z m-1063 -40 c6 -22 14 -40 19 -40 4 0 19 -23 33 -50 20
-39 24 -57 18 -78 -14 -49 -29 -80 -39 -87 -6 -3 -11 -15 -11 -26 0 -10 -6
-19 -14 -19 -8 0 -16 -5 -18 -11 -2 -7 -15 -9 -36 -5 -26 6 -32 13 -38 42 -3
19 -9 33 -11 30 -11 -11 -45 71 -44 106 1 27 9 45 30 67 16 16 32 44 36 60 6
30 27 50 52 51 7 0 17 -18 23 -40z m814 -6 c21 -20 20 -27 -8 -68 -27 -40 -41
-34 -52 24 -6 26 -3 36 11 47 24 17 30 16 49 -3z m-252 -61 c24 -22 23 -39 -7
-75 l-25 -29 -20 33 c-25 41 -25 43 0 68 24 24 28 25 52 3z m908 -195 c0 -5 7
-8 15 -8 8 0 15 5 15 10 0 6 7 10 15 10 25 0 17 -20 -12 -31 -27 -10 -41 -10
-253 -6 -140 3 -146 4 -136 14 13 14 356 23 356 11z m70 -69 c0 -5 -15 -9 -32
-10 -18 0 -59 -1 -91 -2 -33 -1 -64 1 -70 5 -7 4 6 8 28 9 22 1 54 4 70 8 37
8 95 2 95 -10z m273 5 c42 -3 75 -9 72 -14 -10 -17 -121 -21 -221 -9 -57 7
-101 15 -98 18 8 9 96 18 134 15 19 -2 70 -6 113 -10z m-773 -26 c0 -13 -23
-5 -28 10 -2 7 2 10 12 6 9 -3 16 -11 16 -16z m180 11 c0 -5 -17 -9 -37 -9
-21 0 -33 4 -26 8 17 10 63 11 63 1z m-86 -8 c3 -5 35 -12 71 -16 36 -3 67
-11 70 -16 4 -5 23 -9 44 -9 34 0 122 -28 96 -30 -35 -4 -218 -1 -260 4 -27 3
-42 3 -32 0 25 -8 21 -24 -7 -24 -13 0 -45 -3 -72 -6 -46 -5 -48 -4 -30 10 11
9 30 16 41 16 12 0 32 9 45 20 22 19 23 21 5 40 -18 19 -17 20 3 20 11 0 23
-4 26 -9z m-315 -77 c-9 -11 -8 -14 5 -14 9 0 16 6 16 14 0 20 108 26 127 8
18 -18 8 -31 -19 -24 -18 4 -20 2 -15 -17 4 -17 2 -21 -11 -19 -12 2 -16 11
-14 31 3 24 0 27 -28 27 -25 0 -31 -4 -26 -15 4 -10 -3 -19 -19 -25 -27 -10
-55 -4 -55 12 0 5 -8 7 -19 3 -12 -3 -21 0 -25 10 -5 14 14 20 51 16 6 -1 14
3 18 9 3 6 11 8 16 4 6 -4 6 -11 -2 -20z m-114 6 c-3 -5 -12 -10 -18 -10 -7 0
-6 4 3 10 19 12 23 12 15 0z m885 -10 c0 -5 -17 -10 -37 -9 -34 1 -35 2 -13 9
36 11 50 11 50 0z m-3390 -119 c-8 -5 -35 -12 -60 -15 l-45 -6 35 14 c40 16
95 21 70 7z m2375 0 c3 -5 22 -10 43 -10 20 0 62 0 92 0 67 0 97 3 106 12 4 4
17 7 28 6 19 0 19 -1 -4 -12 -14 -6 -28 -16 -31 -21 -4 -4 -12 -5 -18 -2 -6 4
-13 1 -16 -6 -3 -8 -19 -13 -40 -13 -19 1 -35 -2 -35 -7 0 -4 -25 -8 -56 -8
-30 0 -64 -5 -75 -11 -12 -6 -42 -12 -67 -14 -26 -1 -55 -6 -65 -10 -9 -4 -50
-4 -90 -1 -109 10 -197 12 -197 4 0 -8 -41 2 -56 13 -6 5 -14 6 -17 3 -3 -4
-25 -8 -48 -10 -40 -4 -41 -3 -25 15 32 36 197 64 378 65 106 1 128 -1 128
-14 0 -10 6 -8 22 8 25 24 34 27 43 13z m325 -26 c0 -8 -2 -15 -4 -15 -2 0 -6
7 -10 15 -3 8 -1 15 4 15 6 0 10 -7 10 -15z m-2855 -5 c3 -6 -4 -10 -17 -10
-18 0 -20 2 -8 10 19 12 18 12 25 0z m8365 -980 c0 -5 -4 -10 -10 -10 -5 0
-10 5 -10 10 0 6 5 10 10 10 6 0 10 -4 10 -10z m-2565 -330 c3 -5 1 -10 -4
-10 -6 0 -11 5 -11 10 0 6 2 10 4 10 3 0 8 -4 11 -10z m235 -14 c0 -3 -4 -8
-10 -11 -5 -3 -10 -1 -10 4 0 6 5 11 10 11 6 0 10 -2 10 -4z m-93 -52 c0 -10
-4 -11 -11 -4 -5 5 -28 10 -50 11 -34 1 -36 2 -16 8 35 10 77 2 77 -15z m40
-10 c-3 -3 -12 -4 -19 -1 -8 3 -5 6 6 6 11 1 17 -2 13 -5z m253 -44 c0 -5 -4
-10 -10 -10 -5 0 -10 5 -10 10 0 6 5 10 10 10 6 0 10 -4 10 -10z m-640 -140
c0 -5 -5 -10 -11 -10 -5 0 -7 5 -4 10 3 6 8 10 11 10 2 0 4 -4 4 -10z m375
-50 c-3 -5 -22 -10 -41 -10 -21 0 -33 4 -29 10 3 6 22 10 41 10 21 0 33 -4 29
-10z m-278 -16 c2 -6 -21 -10 -52 -10 -65 0 -74 13 -12 19 52 4 60 3 64 -9z
m683 -64 c0 -5 -4 -10 -10 -10 -5 0 -10 5 -10 10 0 6 5 10 10 10 6 0 10 -4 10
-10z m1295 -20 c3 -5 1 -10 -4 -10 -6 0 -11 5 -11 10 0 6 2 10 4 10 3 0 8 -4
11 -10z m-1715 -31 c0 -5 -7 -9 -15 -9 -15 0 -20 12 -9 23 8 8 24 -1 24 -14z
m-187 -5 c9 -10 -4 -34 -19 -34 -8 0 -14 6 -14 13 0 22 19 35 33 21z m-59 -10
c20 -8 11 -24 -15 -24 -19 0 -25 11 -12 23 8 8 8 8 27 1z m946 -104 c0 -5 -4
-10 -10 -10 -5 0 -10 5 -10 10 0 6 5 10 10 10 6 0 10 -4 10 -10z"/>
<path d="M1455 3560 c3 -5 16 -10 28 -9 21 0 21 1 2 9 -28 12 -37 12 -30 0z"/>
<path d="M1535 3550 c3 -5 11 -10 16 -10 6 0 7 5 4 10 -3 6 -11 10 -16 10 -6
0 -7 -4 -4 -10z"/>
<path d="M4217 2114 c18 -7 39 -11 48 -8 27 11 5 24 -38 23 l-42 -1 32 -14z"/>
<path d="M9570 4276 c0 -2 7 -6 15 -10 8 -3 15 -1 15 4 0 6 -7 10 -15 10 -8 0
-15 -2 -15 -4z"/>
<path d="M6425 3855 c-23 -10 -25 -13 -10 -14 11 0 31 6 45 14 32 18 5 19 -35
0z"/>
<path d="M5993 3765 c5 -14 53 -18 73 -7 13 8 7 11 -29 13 -29 3 -46 0 -44 -6z"/>
<path d="M5075 3725 c-6 -9 -33 -16 -70 -18 -69 -5 -82 -22 -40 -55 24 -19 24
-21 9 -37 -9 -9 -26 -15 -38 -14 -11 0 -38 1 -60 0 -29 -1 -37 -4 -32 -16 4
-12 -3 -15 -30 -15 -21 0 -33 4 -29 10 4 6 11 8 16 5 5 -4 9 4 8 17 0 13 -3
17 -6 10 -2 -6 -9 -10 -14 -6 -5 3 -18 -14 -29 -38 -23 -53 -16 -59 62 -51 50
5 59 3 65 -12 4 -11 2 -20 -5 -23 -7 -2 -10 -7 -7 -12 14 -22 179 62 198 101
7 13 26 26 46 31 32 9 111 53 111 63 0 3 -18 3 -40 0 -48 -6 -51 4 -9 28 28
16 31 16 25 1 -6 -14 -4 -15 9 -4 15 12 15 14 -2 24 -10 5 -39 10 -65 10 -27
1 -48 4 -48 9 0 12 -14 8 -25 -8z"/>
<path d="M92 3690 c-7 -11 -9 -20 -4 -20 10 0 32 22 32 32 0 15 -15 8 -28 -12z"/>
<path d="M155 3700 c-3 -6 1 -7 9 -4 18 7 21 14 7 14 -6 0 -13 -4 -16 -10z"/>
<path d="M4720 3599 c-16 -30 -8 -31 13 -3 10 13 13 24 8 24 -6 0 -15 -9 -21
-21z"/>
<path d="M4669 3568 c-1 -7 -1 -16 0 -20 0 -4 -15 -10 -34 -14 -37 -7 -42 -13
-24 -31 8 -8 19 -9 37 -2 14 5 31 8 38 5 7 -3 20 2 31 9 11 9 13 14 5 15 -7 0
-17 11 -22 25 -10 26 -29 34 -31 13z"/>
<path d="M4691 3463 c7 -10 15 -20 16 -22 2 -2 3 5 3 17 0 14 -6 22 -16 22
-14 0 -15 -3 -3 -17z"/>
<path d="M4823 3446 c-26 -12 -38 -35 -24 -49 12 -12 31 0 31 19 0 8 7 14 15
14 8 0 15 7 15 15 0 17 -6 17 -37 1z"/>
<path d="M5073 3324 c-29 -31 -29 -44 0 -44 24 0 57 27 57 47 0 9 -27 26 -33
22 -1 -1 -12 -12 -24 -25z"/>
<path d="M4792 3291 c2 -7 7 -12 11 -12 12 1 9 15 -3 20 -7 2 -11 -2 -8 -8z"/>
<path d="M4750 3250 c0 -5 5 -10 10 -10 6 0 10 5 10 10 0 6 -4 10 -10 10 -5 0
-10 -4 -10 -10z"/>
<path d="M4910 3235 c-7 -8 -8 -15 -2 -15 5 0 15 7 22 15 7 8 8 15 2 15 -5 0
-15 -7 -22 -15z"/>
<path d="M4655 3200 c-3 -5 -1 -10 4 -10 6 0 11 5 11 10 0 6 -2 10 -4 10 -3 0
-8 -4 -11 -10z"/>
<path d="M4985 3200 c3 -5 8 -10 11 -10 2 0 4 5 4 10 0 6 -5 10 -11 10 -5 0
-7 -4 -4 -10z"/>
<path d="M4842 3164 c-12 -8 -20 -20 -17 -25 11 -17 32 -9 43 16 13 29 6 32
-26 9z"/>
<path d="M4901 3161 c-7 -5 -9 -11 -5 -14 5 -3 15 1 22 9 14 16 5 18 -17 5z"/>
</g>
</svg>
